<?xml version="1.0" standalone="no"?>
<!DOCTYPE svg PUBLIC "-//W3C//DTD SVG 20010904//EN"
 "http://www.w3.org/TR/2001/REC-SVG-20010904/DTD/svg10.dtd">
<svg version="1.0" xmlns="http://www.w3.org/2000/svg"
 width="1920.000000pt" height="1920.000000pt" viewBox="0 0 1920.000000 1920.000000"
 preserveAspectRatio="xMidYMid meet">

<g transform="translate(0.000000,1920.000000) scale(0.100000,-0.100000)"
fill="#000000" stroke="none">
<path d="M250 17720 l0 -240 140 0 140 0 -2 -192 -3 -193 -120 0 -120 0 0 135
0 135 65 0 65 0 3 -67 3 -68 -41 0 c-33 0 -40 -3 -40 -20 0 -18 7 -20 59 -20
33 0 61 4 63 10 2 5 2 55 0 110 l-3 100 -103 0 c-76 0 -107 -4 -115 -14 -8 -9
-11 -65 -9 -177 l3 -164 173 -3 172 -2 0 235 0 235 -150 0 -150 0 0 195 0 195
125 0 125 0 0 -135 0 -135 -70 0 -70 0 0 64 0 65 37 3 c27 2 39 8 41 21 3 15
-5 17 -63 17 l-66 0 3 -107 3 -108 115 0 115 0 0 180 0 180 -162 3 -163 2 0
-240z"/>
<path d="M235 16847 c-3 -7 -4 -87 -3 -177 l3 -165 113 -3 112 -3 0 111 0 110
-60 0 c-53 0 -60 -2 -60 -20 0 -17 7 -20 40 -20 l40 0 0 -70 0 -70 -70 0 -71
0 3 138 3 137 120 0 120 0 3 -192 2 -193 -150 0 -150 0 2 -237 3 -238 170 0
170 0 3 178 2 177 -120 0 -121 0 3 -107 3 -108 60 0 c53 0 60 2 60 20 0 16 -8
21 -37 23 l-38 3 0 65 0 64 70 0 71 0 -3 -137 -3 -138 -120 0 -120 0 -3 198
-2 197 150 0 150 0 -2 233 -3 232 -168 3 c-131 2 -169 0 -172 -11z"/>
<path d="M235 15748 c-3 -8 -4 -115 -3 -238 l3 -225 148 -3 147 -3 0 -189 0
-190 -125 0 -125 0 0 135 0 135 70 0 71 0 -3 -67 -3 -68 -37 -3 c-30 -3 -38
-7 -38 -23 0 -17 7 -19 60 -19 l60 0 0 110 0 110 -115 0 -115 0 2 -177 3 -178
170 0 170 0 3 233 2 232 -150 0 -150 0 2 198 3 197 120 0 120 0 3 -137 3 -138
-71 0 -70 0 0 64 0 65 38 3 c29 2 37 7 37 23 0 18 -7 20 -60 20 l-60 0 0 -109
0 -110 105 1 c58 1 111 2 118 2 10 1 12 40 10 179 l-3 177 -168 3 c-130 2
-169 0 -172 -10z"/>
<path d="M237 14654 c-4 -4 -7 -85 -7 -181 l0 -173 115 0 115 0 0 110 0 110
-60 0 c-53 0 -60 -2 -60 -20 0 -17 7 -20 40 -20 l41 0 -3 -67 -3 -68 -65 0
-65 0 0 135 0 135 120 0 120 0 3 -192 2 -193 -150 0 -150 0 2 -237 3 -238 170
0 170 0 0 180 0 180 -115 0 -115 0 -3 -107 -3 -106 49 -4 c66 -4 84 0 80 20
-2 12 -15 18 -41 20 l-37 3 0 65 0 64 70 0 70 0 0 -135 0 -135 -125 0 -125 0
0 195 0 195 150 0 150 0 -2 233 -3 232 -166 3 c-91 1 -168 -1 -172 -4z"/>
<path d="M234 13547 c-2 -7 -3 -114 -2 -237 l3 -225 148 -3 147 -3 0 -189 0
-190 -125 0 -125 0 0 135 0 135 70 0 70 0 0 -64 0 -65 -37 -3 c-30 -2 -38 -7
-38 -23 0 -17 8 -20 58 -23 l57 -3 0 111 0 110 -115 0 -115 0 2 -177 3 -178
170 0 170 0 0 235 0 235 -147 3 -148 3 0 194 0 195 125 0 125 0 0 -140 0 -140
-70 0 -71 0 3 68 3 67 38 3 c30 3 37 7 35 20 -3 14 -15 17 -63 17 l-60 0 -3
-107 -3 -108 121 0 120 0 0 180 0 180 -170 0 c-129 0 -172 -3 -176 -13z"/>
<path d="M232 12283 l3 -178 113 -3 112 -3 0 111 0 110 -60 0 c-53 0 -60 -2
-60 -20 0 -17 7 -20 40 -20 l40 0 0 -65 c0 -74 -7 -79 -91 -73 l-44 3 -3 138
-3 137 126 0 125 0 -2 -192 -3 -193 -147 -3 -148 -3 0 -234 0 -235 175 0 175
0 -2 178 -3 177 -115 0 -115 0 -3 -107 -3 -108 66 0 c58 0 66 2 63 18 -2 12
-14 18 -41 20 l-37 3 0 64 c0 79 4 81 128 66 9 -1 12 -35 12 -136 l0 -135
-125 0 -125 0 0 195 0 194 148 3 147 3 3 233 2 232 -175 0 -175 0 2 -177z"/>
<path d="M240 11120 l0 -240 145 0 145 0 0 -190 0 -190 -125 0 -125 0 0 135 0
135 70 0 70 0 0 -65 0 -65 -41 0 c-36 0 -40 -2 -37 -22 3 -21 8 -23 63 -23
l60 0 0 110 0 110 -112 0 c-62 0 -113 -3 -113 -7 0 -5 0 -84 0 -178 l0 -170
170 0 170 0 0 235 0 235 -150 0 -150 0 0 195 0 195 125 0 125 0 0 -140 0 -141
-67 3 -68 3 -3 68 -3 67 41 0 c33 0 40 3 40 20 0 18 -7 20 -60 20 l-60 0 0
-110 0 -110 115 0 115 0 0 180 0 180 -170 0 -170 0 0 -240z"/>
<path d="M237 10253 c-9 -8 -9 -306 -1 -327 5 -13 25 -16 113 -16 59 0 110 2
112 4 2 2 3 52 1 110 l-3 106 -60 0 c-52 0 -59 -2 -59 -19 0 -16 8 -20 38 -23
l37 -3 3 -67 3 -68 -71 0 -70 0 0 135 0 135 125 0 125 0 0 -190 0 -190 -144 0
c-126 0 -145 -2 -150 -17 -4 -9 -6 -117 -5 -240 l1 -223 174 0 174 0 0 180 0
181 -117 -3 -118 -3 0 -105 0 -105 60 0 c48 0 60 3 63 17 2 13 -5 17 -35 20
l-38 3 -3 68 -3 67 71 0 70 0 0 -140 0 -140 -125 0 -125 0 2 198 3 197 148 3
147 3 0 229 0 230 -168 0 c-93 0 -172 -3 -175 -7z"/>
<path d="M250 8900 l0 -240 140 0 140 0 -2 -192 -3 -193 -120 0 -120 0 0 135
0 135 65 0 65 0 3 -67 3 -68 -41 0 c-33 0 -40 -3 -40 -20 0 -18 7 -20 60 -20
33 0 60 4 60 10 1 6 1 54 1 108 l1 97 -105 3 c-80 2 -107 -1 -116 -12 -8 -9
-11 -63 -9 -177 l3 -164 173 -3 172 -2 0 235 0 235 -150 0 -150 0 2 198 3 197
100 3 c156 4 145 16 145 -143 l0 -135 -70 0 -70 0 0 64 0 65 38 3 c29 2 37 7
37 23 0 18 -7 20 -60 20 l-60 0 0 -110 0 -110 105 0 c58 0 111 2 118 4 9 2 12
47 12 182 l0 179 -165 0 -165 0 0 -240z"/>
<path d="M235 8027 c-3 -7 -4 -87 -3 -177 l3 -165 113 -3 112 -3 0 111 0 110
-60 0 c-53 0 -60 -2 -60 -20 0 -17 7 -20 40 -20 l40 0 0 -70 0 -70 -70 0 -71
0 3 138 3 137 120 0 120 0 3 -192 2 -193 -150 0 -150 0 2 -237 3 -238 170 0
170 0 0 180 0 180 -115 0 -115 0 0 -110 0 -110 60 0 c53 0 60 2 60 20 0 16 -8
21 -37 23 l-38 3 0 65 0 64 70 0 70 0 0 -135 0 -135 -125 0 -125 0 0 195 0
195 150 0 150 0 -2 233 -3 232 -168 3 c-131 2 -169 0 -172 -11z"/>
<path d="M235 6928 c-3 -8 -4 -115 -3 -238 l3 -225 148 -3 147 -3 0 -189 0
-190 -125 0 -125 0 0 135 0 135 70 0 71 0 -3 -67 -3 -68 -37 -3 c-30 -3 -38
-7 -38 -23 0 -17 7 -19 60 -19 l60 0 0 110 0 110 -115 0 -115 0 2 -177 3 -178
170 0 170 0 3 232 2 232 -147 3 -148 3 0 195 0 195 120 0 120 0 3 -137 3 -138
-71 0 -71 0 3 68 3 67 38 3 c30 3 37 7 35 20 -3 14 -15 17 -63 17 l-60 0 -3
-107 -3 -108 121 0 120 0 -2 178 -3 177 -168 3 c-130 2 -169 0 -172 -10z"/>
<path d="M232 5663 l3 -178 113 -3 112 -3 0 111 0 110 -60 0 c-53 0 -60 -2
-60 -20 0 -17 7 -20 40 -20 l41 0 -3 -67 -3 -68 -65 0 -65 0 -3 138 -3 138
123 -3 123 -3 0 -190 0 -190 -148 -3 -147 -3 2 -237 3 -237 170 0 170 0 0 180
0 180 -117 3 -118 3 0 -111 0 -110 66 0 c57 0 65 2 62 18 -2 12 -14 18 -41 20
l-38 3 3 67 3 67 65 0 65 0 3 -137 3 -138 -126 0 -125 0 0 195 0 195 150 0
150 0 0 235 0 235 -175 0 -175 0 2 -177z"/>
<path d="M232 4503 l3 -238 148 -3 147 -3 0 -189 0 -190 -125 0 -125 0 0 135
0 135 70 0 70 0 0 -64 0 -65 -37 -3 c-30 -2 -38 -7 -38 -23 0 -17 8 -20 58
-23 l58 -3 -3 112 -3 112 -95 1 c-144 2 -131 22 -128 -183 l3 -176 170 0 170
0 0 235 0 235 -147 3 -148 3 0 194 0 195 125 0 125 0 0 -140 0 -140 -70 0 -70
0 0 70 0 70 41 0 c33 0 40 3 37 18 -3 14 -14 17 -63 17 l-60 0 -3 -107 -3
-108 121 0 120 0 0 180 0 180 -175 0 -175 0 2 -237z"/>
<path d="M232 3463 l3 -178 113 -3 112 -3 0 111 0 110 -60 0 c-53 0 -60 -2
-60 -20 0 -17 7 -20 40 -20 l40 0 0 -65 0 -65 -70 0 -70 0 0 135 0 135 125 0
125 0 -2 -192 -3 -193 -147 -3 -148 -3 0 -234 0 -235 175 0 175 0 -2 178 -3
177 -115 0 -115 0 -3 -107 -3 -108 66 0 c58 0 66 2 63 18 -2 12 -14 18 -41 20
l-38 3 3 67 3 67 65 0 65 0 3 -137 3 -138 -126 0 -125 0 0 195 0 194 148 3
147 3 3 233 2 232 -175 0 -175 0 2 -177z"/>
<path d="M240 2305 l0 -235 129 0 c71 0 136 -3 145 -6 14 -5 16 -32 16 -195
l0 -189 -125 0 -125 0 0 135 0 135 70 0 70 0 0 -65 0 -65 -40 0 c-33 0 -40 -3
-40 -20 0 -18 7 -20 65 -20 l66 0 -3 108 -3 107 -112 0 c-62 0 -113 -3 -113
-7 0 -5 0 -84 0 -178 l0 -170 170 0 170 0 0 235 0 235 -150 0 -150 0 0 195 0
195 125 0 126 0 -3 -137 -3 -138 -65 0 -65 0 -3 68 -3 67 41 0 c33 0 40 3 40
20 0 18 -7 20 -60 20 l-60 0 0 -110 0 -110 115 0 115 0 0 180 0 180 -170 0
-170 0 0 -235z"/>
<path d="M236 1424 c-8 -20 -8 -298 0 -318 5 -13 25 -16 113 -16 59 0 110 2
112 4 2 2 3 52 1 110 l-3 106 -60 0 c-52 0 -59 -2 -59 -19 0 -16 8 -20 38 -23
l37 -3 3 -67 3 -68 -71 0 -70 0 0 135 0 135 125 0 125 0 0 -190 0 -190 -144 0
c-126 0 -145 -2 -150 -17 -4 -9 -6 -117 -5 -240 l1 -223 174 0 174 0 0 180 0
181 -117 -3 -118 -3 0 -105 0 -105 60 0 c48 0 60 3 63 17 2 13 -5 17 -35 20
l-38 3 -3 68 -3 67 71 0 70 0 0 -140 0 -140 -125 0 -125 0 2 198 3 197 148 3
147 3 0 229 0 230 -169 0 c-145 0 -170 -2 -175 -16z"/>
</g>
</svg>
